#!OML:ASF E:\Style4\Style4.ASF
:FULLY-SPECIFIED
:DEGREES
2771
root -0.303471 17.059 0.141039 -10.0825 12.3625 4.90474
lowerback 6.72839 3.23209 0.704239
upperback 4.21608 4.36192 -1.37173
thorax 0.745006 2.22683 -2.05697
lowerneck -2.72326 -4.82417 -4.80694
upperneck 18.5087 -6.81911 4.17723
head 6.36662 -3.29368 1.69096
rclavicle -1.67142e-016 9.93923e-016
rhumerus 54.1696 -18.5536 -34.5419
rradius 81.0921
rwrist -12.5937
rhand 2.07688 10.073
rfingers 7.12502
rthumb 27.5781 -17.9265
lclavicle -1.67142e-016 9.93923e-016
lhumerus 50.5083 21.8332 34.5661
lradius 89.605
lwrist 15.3128
lhand 2.89594 24.9618
lfingers 7.12502
lthumb 28.3611 52.8337
rfemur -2.01421 -10.4693 12.5865
rtibia 44.6426
rfoot -29.3804 -20.3612
rtoes -8.30456
lfemur -4.6815 -2.02577 -22.726
ltibia 40.64
lfoot -23.8937 4.04977
ltoes -14.235
2772
root -0.308088 17.0829 0.121697 -9.85215 12.0143 4.87134
lowerback 6.75031 3.18265 0.665736
upperback 4.20945 4.2931 -1.41291
thorax 0.723565 2.1916 -2.07575
lowerneck -2.61596 -4.87183 -4.89875
upperneck 18.2991 -6.89824 4.30994
head 6.29297 -3.33272 1.7463
rclavicle -1.3442e-014 2.127e-014
rhumerus 54.3439 -18.4812 -34.2655
rradius 80.924
rwrist -12.6192
rhand 2.15881 10.1072
rfingers 7.12502
rthumb 27.6565 -17.8797
lclavicle -1.3442e-014 2.127e-014
lhumerus 50.467 21.9116 34.4648
lradius 89.365
lwrist 15.4251
lhand 2.84749 25.0722
lfingers 7.12502
lthumb 28.3148 52.9517
rfemur -2.33309 -10.2685 12.7419
rtibia 44.3857
rfoot -29.0545 -20.3706
rtoes -8.76266
lfemur -4.79462 -1.80803 -22.6202
ltibia 40.2731
lfoot -23.7025 4.10836
ltoes -14.3097
2773
root -0.310646 17.1043 0.101314 -9.66483 11.6722 4.91191
lowerback 6.84045 3.14598 0.583257
upperback 4.26485 4.23974 -1.48133
thorax 0.728162 2.16456 -2.10086
lowerneck -2.60717 -4.96478 -5.06996
upperneck 18.0496 -7.04815 4.56259
head 6.23467 -3.40184 1.84516
rclavicle 1.94871e-014 3.37934e-015
rhumerus 54.5154 -18.5087 -34.0038
rradius 80.7981
rwrist -12.5963
rhand 2.28017 9.95318
rfingers 7.12502
rthumb 27.7725 -18.0151
lclavicle 1.94871e-014 3.37934e-015
lhumerus 50.6043 22.0298 34.4863
lradius 89.1026
lwrist 15.5681
lhand 2.9009 25.1375
lfingers 7.12502
lthumb 28.3659 53.0086
rfemur -2.55232 -10.1043 12.7669
rtibia 44.1075
rfoot -28.759 -20.3113
rtoes -9.08366
lfemur -4.83059 -1.58073 -22.6121
ltibia 39.8977
lfoot -23.522 4.09935
ltoes -13.83
2774
root -0.313251 17.1238 0.0816097 -9.52614 11.2436 4.92968
lowerback 6.96863 3.14491 0.510802
upperback 4.32304 4.23405 -1.54985
thorax 0.717465 2.16154 -2.13657
lowerneck -2.57963 -5.05517 -5.05517
upperneck 17.8141 -7.19015 4.69491
head 6.16668 -3.46374 1.87651
rclavicle -7.38143e-015 1.49089e-015
rhumerus 54.6744 -18.5527 -33.7461
rradius 80.5432
rwrist -12.5787
rhand 2.45279 9.96934
rfingers 7.12502
rthumb 27.9375 -17.9722
lclavicle -7.38143e-015 1.49089e-015
lhumerus 50.8519 22.1121 34.5975
lradius 88.794
lwrist 15.6394
lhand 3.01246 25.2191
lfingers 7.12502
lthumb 28.4725 53.0724
rfemur -2.72626 -9.85832 12.827
rtibia 43.817
rfoot -28.5177 -20.1694
rtoes -9.07568
lfemur -4.80399 -1.32079 -22.5704
ltibia 39.5136
lfoot -23.3594 4.22145
ltoes -13.5658
2775
root -0.315379 17.1464 0.063135 -9.36099 10.7809 4.87739
lowerback 7.06763 3.14313 0.500934
upperback 4.32374 4.22983 -1.60656
thorax 0.667173 2.15941 -2.19532
lowerneck -2.37431 -5.15134 -4.9713
upperneck 17.5082 -7.33324 4.73555
head 6.04034 -3.53186 1.87308
rclavicle 2.01394e-014 1.82882e-014
rhumerus 54.8247 -18.5095 -33.4705
rradius 80.2222
rwrist -12.5519
rhand 2.58365 9.98389
rfingers 7.12502
rthumb 28.0626 -17.9372
lclavicle 2.01394e-014 1.82882e-014
lhumerus 50.9883 22.1237 34.5632
lradius 88.4583
lwrist 15.7772
lhand 3.01627 25.2136
lfingers 7.12502
lthumb 28.4761 53.0663
rfemur -2.94754 -9.6157 12.9758
rtibia 43.5147
rfoot -28.2338 -20.0469
rtoes -9.15929
lfemur -4.82285 -1.07276 -22.4657
ltibia 39.1296
lfoot -23.1803 4.47183
ltoes -13.8843
2776
root -0.315822 17.1694 0.0428878 -9.16049 10.344 4.84709
lowerback 7.15258 3.10963 0.45051
upperback 4.31902 4.18074 -1.63714
thorax 0.61207 2.13345 -2.20134
lowerneck -2.14459 -5.24794 -5.00853
upperneck 17.1824 -7.47113 4.80387
head 5.90942 -3.60418 1.89968
rclavicle -3.26038e-014 8.94531e-016
rhumerus 55.0176 -18.3992 -33.1033
rradius 79.876
rwrist -12.4162
rhand 2.61149 9.9623
rfingers 7.12502
rthumb 28.0892 -17.9544
lclavicle -3.26038e-014 8.94531e-016
lhumerus 51.0127 22.1912 34.4967
lradius 88.1089
lwrist 15.9701
lhand 2.96643 25.1582
lfingers 7.12502
lthumb 28.4285 53.0188
rfemur -3.17189 -9.41787 13.078
rtibia 43.1913
rfoot -28.0025 -19.8165
rtoes -9.14348
lfemur -4.90924 -0.849747 -22.3993
ltibia 38.7562
lfoot -22.98 4.70187
ltoes -14.1488
2777
root -0.315396 17.1906 0.0203696 -8.9608 9.90812 4.88481
lowerback 7.24737 3.05662 0.293093
upperback 4.36676 4.09997 -1.65552
thorax 0.59598 2.09008 -2.132
lowerneck -2.05128 -5.32549 -5.08523
upperneck 16.8391 -7.58101 4.91373
head 5.79845 -3.66086 1.94408
rclavicle 8.51606e-014 -1.54058e-014
rhumerus 55.3287 -18.3279 -32.7152
rradius 79.4521
rwrist -12.0333
rhand 2.57669 10.1326
rfingers 7.12502
rthumb 28.056 -17.7896
lclavicle 8.51606e-014 -1.54058e-014
lhumerus 51.0566 22.4 34.4846
lradius 87.7657
lwrist 16.158
lhand 3.01165 25.1598
lfingers 7.12502
lthumb 28.4717 53.0132
rfemur -3.39884 -9.22986 13.0892
rtibia 42.8703
rfoot -27.6454 -19.6024
rtoes -9.2031
lfemur -4.96768 -0.7149 -22.439
ltibia 38.3837
lfoot -22.815 5.02822
ltoes -14.1713
2778
root -0.315117 17.2131 -0.00549815 -8.80522 9.37485 4.7658
lowerback 7.40012 3.01226 0.333076
upperback 4.41542 4.04185 -1.6607
thorax 0.563062 2.06162 -2.16353
lowerneck -1.96253 -5.41663 -5.18667
upperneck 16.5274 -7.71815 5.08714
head 5.7035 -3.7279 2.01035
rclavicle -2.2121e-014 -2.06736e-014
rhumerus 55.5834 -18.2479 -32.3117
rradius 78.9963
rwrist -11.6006
rhand 2.2572 10.5129
rfingers 7.12502
rthumb 27.7505 -17.4589
lclavicle -2.2121e-014 -2.06736e-014
lhumerus 51.1852 22.559 34.4791
lradius 87.4115
lwrist 16.2399
lhand 2.97253 25.3221
lfingers 7.12502
lthumb 28.4343 53.1818
rfemur -3.66441 -8.92674 13.3135
rtibia 42.5474
rfoot -27.2056 -19.5616
rtoes -9.83778
lfemur -5.00312 -0.510712 -22.2906
ltibia 38.0082
lfoot -22.6685 5.32949
ltoes -14.3342
2779
root -0.314029 17.237 -0.0313008 -8.60284 8.79366 4.74287
lowerback 7.53335 2.99483 0.263845
upperback 4.43515 4.01236 -1.68004
thorax 0.505552 2.04511 -2.15041
lowerneck -1.75842 -5.51434 -5.27245
upperneck 16.1747 -7.85875 5.20729
head 5.57431 -3.8016 2.06109
rclavicle 4.60249e-014 -1.68967e-014
rhumerus 55.806 -18.2003 -31.817
rradius 78.5655
rwrist -11.5244
rhand 2.11832 10.7234
rfingers 7.12502
rthumb 27.6177 -17.2697
lclavicle 4.60249e-014 -1.68967e-014
lhumerus 51.3103 22.6347 34.5608
lradius 87.0343
lwrist 16.3119
lhand 2.98009 25.5019
lfingers 7.12502
lthumb 28.4415 53.3603
rfemur -3.97695 -8.59369 13.4295
rtibia 42.2278
rfoot -26.8853 -19.3989
rtoes -9.90728
lfemur -5.06286 -0.224626 -22.238
ltibia 37.6246
lfoot -22.4998 5.58033
ltoes -14.3289
2780
root -0.313509 17.2602 -0.0576262 -8.38267 8.22771 4.77321
lowerback 7.65006 2.98728 0.12197
upperback 4.48576 3.99192 -1.72297
thorax 0.486279 2.03257 -2.11953
lowerneck -1.70709 -5.60953 -5.31678
upperneck 15.8662 -7.99569 5.33616
head 5.48392 -3.86773 2.10333
rclavicle -5.00192e-014 9.0447e-015
rhumerus 56.0297 -18.3149 -31.2487
rradius 78.1523
rwrist -11.403
rhand 1.95832 10.7956
rfingers 7.12502
rthumb 27.4647 -17.2219
lclavicle -5.00192e-014 9.0447e-015
lhumerus 51.5792 22.7483 34.6877
lradius 86.5844
lwrist 16.3827
lhand 2.85897 25.5817
lfingers 7.12502
lthumb 28.3258 53.4594
rfemur -4.3037 -8.27339 13.4882
rtibia 41.9131
rfoot -26.564 -19.1876
rtoes -9.80971
lfemur -5.13797 0.014686 -22.2524
ltibia 37.2301
lfoot -22.3347 5.91
ltoes -14.5554
